<?xml version="1.0" encoding="UTF-8"?>
<svg xmlns="http://www.w3.org/2000/svg" version="1.1" viewBox="0 0 16 16">
  <!-- Generator: Adobe Illustrator 30.1.0, SVG Export Plug-In . SVG Version: 2.1.1 Build 136)  -->
  <defs>
    <style>
      .st0 {
        fill: #fff;
      }
    </style>
  </defs>
  <g id="Layer_1" shape-rendering="crispEdges">
    <path class="st0" d="M11,7v-1h1v-2h-1v-1h-1v-1h-1v-1h-1V0h-1v6h-1v-1h-1v-1h-1v2h1v1h1v2h-1v1h-1v2h1v-1h1v-1h1v6h1v-1h1v-1h1v-1h1v-1h1v-2h-1v-1h-1v-2h1ZM10,12h-1v1h-1v-4h1v1h1v2ZM9,6v1h-1V3h1v1h1v2h-1Z"/>
  </g>
</svg>